<?xml version="1.0" standalone="no"?>
<!DOCTYPE svg PUBLIC "-//W3C//DTD SVG 20010904//EN"
 "http://www.w3.org/TR/2001/REC-SVG-20010904/DTD/svg10.dtd">
<svg version="1.0" xmlns="http://www.w3.org/2000/svg"
 width="1640.000000pt" height="924.000000pt" viewBox="0 0 1640.000000 924.000000"
 preserveAspectRatio="xMidYMid meet">

<g transform="translate(0.000000,924.000000) scale(0.100000,-0.100000)"
fill="#000000" stroke="none">
<path d="M7671 8408 c-147 -8 -437 -41 -501 -58 -78 -20 -119 -29 -208 -45
-147 -27 -508 -141 -567 -179 -11 -7 -50 -23 -86 -35 -88 -29 -356 -161 -499
-246 -223 -133 -526 -346 -654 -463 -11 -9 -16 -11 -11 -4 17 30 -96 -66 -179
-151 -88 -92 -249 -272 -296 -331 -13 -17 -56 -71 -95 -121 -72 -91 -172 -250
-213 -338 -35 -75 -25 -69 19 13 69 127 296 460 314 460 2 0 -34 -55 -79 -122
-246 -370 -425 -800 -540 -1298 -66 -289 -88 -537 -74 -820 7 -148 38 -365 63
-445 11 -35 12 -18 8 125 -13 378 46 822 153 1170 163 526 406 962 801 1438
52 61 96 112 99 112 3 0 -3 -11 -13 -24 -10 -13 -52 -69 -93 -123 -390 -510
-644 -1063 -739 -1604 -125 -711 -97 -1336 86 -1879 143 -427 528 -941 998
-1334 181 -151 496 -354 852 -550 173 -95 508 -256 646 -310 197 -78 458 -146
561 -146 76 0 84 -28 25 -88 -55 -56 -105 -52 -379 29 -463 138 -1002 430
-1545 840 -263 198 -396 316 -633 564 l-105 110 53 -80 c100 -151 243 -320
424 -501 227 -227 397 -358 666 -516 385 -226 970 -453 1395 -540 103 -22 133
-23 480 -23 317 1 396 4 555 23 353 42 846 142 1075 217 269 88 587 267 928
522 55 40 104 70 109 66 6 -3 8 -2 5 4 -10 15 56 86 126 136 77 56 232 214
281 287 20 30 59 82 87 115 69 81 222 314 310 471 360 642 520 1312 479 2014
-18 315 -64 607 -135 860 -30 107 -44 139 -45 101 0 -34 -40 -200 -49 -206 -5
-2 -28 42 -51 98 -177 416 -397 796 -629 1087 -148 184 -281 318 -476 481
-671 556 -1502 890 -2440 979 -140 13 -477 13 -620 0 -616 -56 -1171 -267
-1710 -647 -99 -70 -61 -31 70 72 520 407 1108 652 1720 716 150 16 546 16
724 0 433 -38 872 -147 1323 -326 278 -111 490 -223 758 -399 219 -145 361
-258 540 -431 99 -96 132 -125 93 -80 -95 109 -360 364 -448 433 -44 34 -103
80 -131 103 -67 54 -203 144 -339 227 -287 173 -866 432 -968 432 -18 0 -77
16 -132 35 -117 42 -192 59 -370 85 -244 35 -539 50 -774 38z m1176 -2079
c516 -160 940 -293 942 -295 2 -2 10 -61 19 -131 20 -168 23 -764 4 -943 -121
-1159 -581 -1953 -1397 -2413 -108 -61 -335 -160 -454 -198 l-73 -24 -97 34
c-388 136 -697 325 -970 594 -504 497 -793 1213 -862 2137 -15 199 -6 685 15
834 8 60 17 110 18 111 2 1 368 115 813 253 446 139 871 271 945 296 74 24
140 42 147 41 6 -2 434 -135 950 -296z m2727 -953 c20 -49 35 -90 33 -92 -6
-6 -54 66 -66 99 -10 27 -16 95 -7 86 2 -2 20 -44 40 -93z"/>
<path d="M7780 6475 c-58 -18 -460 -144 -894 -279 -435 -136 -791 -248 -793
-249 -14 -15 -27 -254 -27 -517 -1 -321 7 -445 45 -700 150 -1010 630 -1746
1389 -2126 117 -59 326 -143 374 -151 63 -10 417 144 611 266 735 463 1150
1275 1226 2401 16 237 0 803 -24 826 -3 3 -1718 539 -1782 557 -11 3 -67 -10
-125 -28z m951 -330 c89 -23 213 -85 284 -142 119 -97 215 -249 251 -398 22
-91 22 -248 0 -340 -45 -190 -184 -375 -356 -471 -76 -43 -211 -83 -301 -90
-143 -11 -306 25 -374 81 l-30 24 35 -9 c51 -15 166 -12 239 5 129 31 290 137
360 239 49 71 69 111 96 197 22 69 26 100 24 184 -3 176 -63 319 -187 442
-131 130 -289 188 -489 181 -94 -3 -101 -2 -87 13 25 28 151 80 227 95 87 16
219 12 308 -11z m-1557 -102 c3 -10 15 -63 26 -118 20 -100 34 -125 71 -125
29 0 68 60 95 147 14 45 28 84 32 87 12 7 13 -207 1 -243 -9 -27 -8 -36 4 -48
13 -13 27 -7 121 56 58 39 106 66 106 60 0 -7 -24 -48 -53 -93 -81 -123 -80
-120 -56 -150 26 -34 49 -30 170 25 47 21 88 39 91 39 15 0 -151 -160 -179
-174 -62 -31 -39 -51 82 -76 152 -30 152 -30 135 -40 -8 -4 -62 -18 -120 -30
-58 -12 -111 -27 -117 -32 -7 -6 -13 -22 -13 -37 0 -34 47 -66 139 -96 120
-40 119 -44 -11 -45 -64 0 -129 5 -144 10 -21 9 -31 8 -42 -4 -14 -14 -9 -24
40 -98 99 -150 95 -143 76 -136 -9 4 -57 34 -108 67 -50 34 -99 61 -109 61
-56 0 -56 -77 1 -187 23 -45 40 -84 37 -87 -9 -9 -156 137 -173 172 -16 31
-39 42 -50 23 -4 -5 -15 -54 -26 -108 -28 -136 -29 -143 -38 -143 -4 0 -14 28
-21 63 -37 185 -41 195 -69 202 -39 10 -76 -39 -109 -142 -39 -124 -48 -121
-47 15 0 65 4 134 9 155 7 32 5 37 -11 37 -10 0 -64 -31 -120 -70 -56 -38
-105 -70 -109 -70 -12 0 3 28 70 130 36 55 65 104 65 109 0 4 -9 16 -20 26
-27 25 -73 16 -177 -35 -47 -23 -87 -40 -89 -37 -9 9 150 168 184 184 58 28
39 45 -82 69 -194 40 -194 41 -36 73 58 12 115 24 126 26 33 7 38 53 8 80 -27
25 -80 50 -141 65 -22 6 -51 18 -62 28 -21 16 -18 17 91 16 62 0 132 -4 156
-8 59 -12 56 4 -24 125 -36 55 -63 103 -60 106 3 4 52 -24 108 -62 88 -58 105
-66 127 -59 43 15 40 72 -9 172 -47 98 -52 131 -12 80 15 -20 42 -46 61 -59
19 -13 50 -48 68 -76 31 -49 55 -65 67 -45 3 5 16 61 28 125 23 115 31 135 42
100z m599 -1510 c-7 -2 -19 -2 -25 0 -7 3 -2 5 12 5 14 0 19 -2 13 -5z m264 1
c-3 -3 -12 -4 -19 -1 -8 3 -5 6 6 6 11 1 17 -2 13 -5z m-314 -11 c-7 -2 -19
-2 -25 0 -7 3 -2 5 12 5 14 0 19 -2 13 -5z m292 -15 c2 -2 1 -15 -2 -30 l-5
-27 -114 -3 c-119 -3 -124 -1 -124 42 0 13 9 20 28 23 28 5 211 1 217 -5z
m-271 -35 c8 -28 -5 -43 -36 -43 -15 0 -104 -31 -160 -54 -12 -6 -21 0 -32 22
-15 28 -14 30 12 42 43 21 165 59 188 60 15 0 24 -8 28 -27z m371 16 c48 -12
147 -49 158 -59 11 -10 -14 -62 -27 -56 -64 25 -100 38 -148 51 -54 15 -58 19
-58 46 0 33 10 35 75 18z m-76 -77 c19 -7 2 -27 -164 -192 -205 -205 -183
-193 -299 -164 -55 14 -76 14 -123 -2 -10 -4 68 80 172 186 l190 192 101 -6
c56 -3 111 -9 123 -14z m-474 -198 c-225 -221 -226 -222 -274 -250 -18 -10
-35 -30 -38 -44 -6 -25 -142 -174 -151 -165 -9 9 21 130 49 197 65 158 216
320 365 393 87 42 97 46 156 60 118 29 118 30 -107 -191z m-75 177 c16 -31 13
-38 -32 -64 -24 -14 -64 -43 -89 -66 l-46 -40 -24 25 -24 26 35 29 c46 38 150
109 161 109 4 0 13 -9 19 -19z m894 -22 c33 -23 76 -55 93 -72 l33 -31 -22
-23 -21 -22 -46 38 c-36 29 -104 77 -139 97 -7 4 22 54 31 54 5 0 37 -19 71
-41z m-250 18 c18 -13 17 -15 -5 -34 -13 -11 -78 -75 -144 -144 -115 -119
-114 -118 30 24 l151 147 72 -35 c40 -20 72 -39 72 -43 0 -4 -92 -99 -205
-212 l-204 -204 -21 27 c-12 15 -27 27 -34 27 -7 0 -25 11 -40 25 -14 13 -42
32 -61 41 l-36 17 188 188 c103 104 194 189 203 189 9 0 24 -6 34 -13z m-784
-21 c0 -2 -8 -10 -17 -17 -16 -13 -17 -12 -4 4 13 16 21 21 21 13z m-90 -81
c-24 -25 -46 -45 -49 -45 -3 0 15 20 39 45 24 25 46 45 49 45 3 0 -15 -20 -39
-45z m1191 -94 c54 -54 99 -105 99 -113 0 -7 -55 -68 -122 -134 -108 -107
-129 -123 -173 -134 -27 -7 -72 -22 -99 -33 -38 -16 -52 -18 -66 -9 -14 8 -19
8 -23 -2 -6 -14 -53 -10 -63 5 -8 14 -24 11 -24 -5 0 -8 -12 -19 -27 -25 -25
-10 -25 -10 -3 -5 76 18 83 18 78 -4 -5 -19 -4 -20 14 -11 43 23 174 53 189
43 18 -11 -55 -75 -98 -86 -51 -12 -97 -59 -114 -117 -9 -31 -67 -94 -290
-317 l-278 -277 -55 42 c-47 36 -100 93 -153 162 -10 13 -4 23 37 64 l50 49 0
-32 c0 -25 -4 -32 -20 -32 -11 0 -20 -7 -20 -15 0 -20 29 -19 69 1 21 11 45
14 69 10 121 -20 138 -19 198 10 42 20 64 40 85 73 16 25 29 50 29 55 0 6 14
24 31 40 17 16 37 39 45 51 24 37 45 135 38 180 l-6 42 49 7 c73 10 79 21 10
20 -38 0 -74 -7 -94 -17 -29 -15 -93 -24 -93 -12 0 12 77 74 92 75 25 0 69 21
102 47 21 18 32 21 41 13 10 -8 14 -7 17 2 4 10 11 11 38 1 40 -15 47 -11 25
11 -10 9 -33 16 -55 16 -23 0 -45 7 -55 17 -16 15 -2 31 197 230 117 117 217
213 221 213 5 0 54 -45 108 -99z m-1190 -38 c-24 -26 -54 -67 -68 -90 -14 -24
-27 -43 -28 -43 -10 0 -55 24 -55 29 0 9 69 111 108 159 l35 43 25 -25 25 -24
-42 -49z m1330 24 c25 -32 55 -73 65 -93 19 -35 19 -36 0 -50 -28 -20 -41 -18
-53 9 -6 12 -34 53 -63 91 -50 65 -51 68 -34 87 10 11 22 18 28 16 6 -2 32
-29 57 -60z m-1401 29 c0 -2 -8 -10 -17 -17 -16 -13 -17 -12 -4 4 13 16 21 21
21 13z m1419 -231 c17 -35 35 -83 42 -105 l13 -41 -76 -76 -75 -75 -42 27
c-73 49 -191 40 -221 -15 -13 -25 -30 -26 -30 -2 0 10 24 42 54 71 40 40 59
52 73 47 13 -4 26 1 37 13 10 11 32 25 49 32 33 13 92 68 83 77 -3 2 -27 -11
-53 -31 -26 -19 -59 -38 -73 -42 -18 -5 4 22 74 93 55 56 103 99 108 96 4 -3
21 -34 37 -69z m-1484 33 c29 -13 30 -19 9 -59 -8 -17 -23 -62 -33 -100 -10
-38 -21 -70 -24 -69 -4 0 -19 0 -33 0 -25 0 -26 2 -19 37 7 38 64 203 70 203
2 0 16 -5 30 -12z m1595 -57 c11 -30 27 -80 34 -112 l14 -57 -33 -4 c-32 -4
-32 -3 -49 62 -10 36 -26 84 -36 107 l-19 43 27 14 c33 17 35 15 62 -53z
m-1549 -223 c-14 -39 -14 -88 -1 -88 7 0 39 40 45 57 0 1 24 -6 52 -16 l52
-18 -102 -101 c-118 -118 -110 -121 -122 43 l-8 97 44 44 c47 48 61 42 40 -18z
m1509 19 c0 -24 -11 -43 -47 -82 l-48 -50 45 43 c25 23 49 42 53 42 4 0 7 -35
7 -77 0 -73 -2 -79 -32 -110 -18 -18 -35 -33 -39 -33 -4 0 -10 17 -14 37 -8
44 -37 104 -60 123 -14 12 -9 20 51 81 37 38 71 66 76 63 4 -3 8 -19 8 -37z
m-1606 -114 l-1 -118 -30 -3 c-30 -3 -30 -3 -36 57 -3 34 -3 88 0 121 6 59 6
60 37 60 l31 0 -1 -117z m566 98 c14 -27 13 -44 -4 -38 -43 17 -206 -51 -206
-85 0 -14 -6 -18 -26 -16 -24 3 -31 -5 -62 -64 -39 -75 -53 -159 -32 -198 11
-20 7 -27 -36 -71 -27 -27 -51 -49 -55 -49 -8 0 -58 103 -80 168 l-19 55 142
143 c132 134 167 160 183 134 11 -18 79 -10 125 15 55 30 57 30 70 6z m1134
-3 c3 -13 6 -57 6 -98 0 -104 -6 -120 -41 -120 l-29 0 0 120 0 120 29 0 c21 0
30 -6 35 -22z m-109 -329 c-32 -124 -113 -258 -217 -356 -63 -59 -172 -132
-235 -156 -42 -16 -164 -47 -187 -47 -7 0 95 107 226 238 209 208 242 237 273
240 41 4 85 50 85 90 0 16 13 39 33 60 28 30 32 31 35 14 2 -11 -4 -48 -13
-83z m-1581 79 c5 -20 57 -182 62 -195 3 -6 -8 -19 -24 -27 l-30 -16 -30 84
c-17 45 -34 99 -37 119 -7 37 -8 36 48 46 4 0 9 -5 11 -11z m1682 -2 c5 -3
-37 -149 -55 -189 l-21 -48 -29 16 -30 15 19 42 c10 24 26 73 35 110 l17 67
32 -6 c17 -3 32 -6 32 -7z m-737 -210 l22 -50 -179 -179 -178 -178 -50 16
c-27 10 -78 31 -113 47 l-64 30 264 264 264 264 6 -82 c4 -51 15 -102 28 -132z
m367 103 c32 -23 61 -43 64 -46 2 -2 -106 -114 -240 -248 l-245 -245 -64 0
c-35 0 -93 5 -129 11 l-64 11 176 177 176 176 58 -3 58 -4 51 55 c32 33 58 73
69 105 10 29 21 52 25 52 3 0 32 -19 65 -41z m-1195 -181 c19 -29 49 -70 68
-91 33 -36 33 -38 16 -57 -10 -11 -24 -20 -30 -20 -18 0 -155 185 -144 194 9
7 44 25 50 26 4 0 22 -24 40 -52z m1456 39 c23 -13 23 -13 -31 -92 -29 -44
-63 -89 -75 -99 -21 -20 -22 -20 -42 1 l-21 21 52 68 c29 38 57 79 63 91 12
26 22 28 54 10z m-1186 -302 c32 -17 36 -32 15 -60 -13 -18 -14 -18 -52 5 -21
13 -59 39 -83 59 -25 20 -52 41 -60 48 -14 10 -13 14 8 37 l23 25 60 -50 c32
-27 72 -56 89 -64z m1017 47 c-24 -25 -164 -122 -177 -122 -8 0 -34 50 -29 55
2 1 28 19 58 38 30 20 71 50 90 66 l35 30 23 -21 22 -22 -22 -24z m-919 -97
c16 -8 61 -23 101 -34 40 -11 75 -22 77 -25 2 -2 1 -16 -3 -30 -6 -26 -9 -27
-48 -21 -22 4 -76 20 -118 37 l-78 29 15 30 c18 34 17 34 54 14z m700 -12 c7
-14 8 -30 4 -34 -12 -12 -188 -69 -213 -69 -18 0 -21 5 -18 31 3 29 8 33 53
45 28 7 73 21 100 32 65 26 60 26 74 -5z m-259 -68 c0 -7 2 -20 6 -28 7 -18
-102 -31 -187 -21 -60 7 -69 16 -54 56 8 19 235 13 235 -7z"/>
<path d="M5260 7496 c-30 -23 -64 -53 -75 -66 l-20 -23 20 11 c22 13 143 121
135 122 -3 0 -30 -20 -60 -44z"/>
<path d="M11485 3002 c-28 -53 -87 -157 -133 -231 -45 -74 -73 -126 -61 -115
49 44 143 172 179 243 36 72 76 188 68 196 -2 2 -26 -40 -53 -93z"/>
<path d="M10230 1527 c-14 -12 -39 -32 -55 -45 -17 -13 -21 -19 -10 -13 21 10
104 80 95 80 -3 0 -16 -10 -30 -22z"/>
</g>
</svg>
